# xmcd
#
# Track frame offsets:
#	150
#	19850
#	37519
#	51465
#	69796
#	84747
#	100051
#	114473
#	130946
#	148509
#
# Disc length: 2171 seconds
#
# Revision: 1
# Processed by: cddbd v1.5.1PL0 Copyright (c) Steve Scherf et al.
# Submitted via: audiograbber 1.82.02
#
DISCID=7c08790a
DTITLE=Faith Hill - It Matters To Me
DYEAR=1995
DGENRE=Country
TTITLE0=Faith Hill - Someone Else's Dream
TTITLE1=Faith Hill - Let's Go To Vegas
TTITLE2=Faith Hill - It Matters To Me
TTITLE3=Faith Hill - Bed Of Roses
TTITLE4=Faith Hill - A Man's Home Is His Castle
TTITLE5=Faith Hill - You Can't Lose Me
TTITLE6=Faith Hill - I Can't Do That Anymore
TTITLE7=Faith Hill - A Room In My Heart
TTITLE8=Faith Hill - You Will Be Mine
TTITLE9=Faith Hill - Keep Walking On
EXTD=
EXTT0=
EXTT1=
EXTT2=
EXTT3=
EXTT4=
EXTT5=
EXTT6=
EXTT7=
EXTT8=
EXTT9=
PLAYORDER=
